int tetris_melody[] = {
  NOTE_E5, NOTE_B4, NOTE_C5, NOTE_D5, NOTE_C5, NOTE_B4,
  NOTE_A4, NOTE_A4, NOTE_C5, NOTE_E5, NOTE_D5, NOTE_C5,
  NOTE_B4, NOTE_C5, NOTE_D5, NOTE_E5,
  NOTE_C5, NOTE_A4, NOTE_A4, NOTE_A4, NOTE_B4, NOTE_C5,
  
  NOTE_D5, NOTE_F5, NOTE_A5, NOTE_G5, NOTE_F5,
  NOTE_E5, NOTE_C5, NOTE_E5, NOTE_D5, NOTE_C5,
  NOTE_B4, NOTE_B4, NOTE_C5, NOTE_D5, NOTE_E5,
  NOTE_C5, NOTE_A4, NOTE_A4, REST, 
  
  NOTE_E5, NOTE_B4, NOTE_C5, NOTE_D5, NOTE_C5, NOTE_B4,
  NOTE_A4, NOTE_A4, NOTE_C5, NOTE_E5, NOTE_D5, NOTE_C5,
  NOTE_B4, NOTE_C5, NOTE_D5, NOTE_E5,
  NOTE_C5, NOTE_A4, NOTE_A4, NOTE_A4, NOTE_B4, NOTE_C5,
  
  NOTE_D5, NOTE_F5, NOTE_A5, NOTE_G5, NOTE_F5,
  NOTE_E5, NOTE_C5, NOTE_E5, NOTE_D5, NOTE_C5,
  NOTE_B4, NOTE_B4, NOTE_C5, NOTE_D5, NOTE_E5,
  NOTE_C5, NOTE_A4, NOTE_A4, REST, 
  
  NOTE_E5, NOTE_C5,
  NOTE_D5, NOTE_B4,
  NOTE_C5, NOTE_A4,
  NOTE_GS4, NOTE_B4, REST, 
  NOTE_E5, NOTE_C5,
  NOTE_D5, NOTE_B4,
  NOTE_C5, NOTE_E5, NOTE_A5,
  NOTE_GS5
};

int tetris_durations[] = {
  4, 8, 8, 4, 8, 8,
  4, 8, 8, 4, 8, 8,
  4, 8, 4, 4,
  4, 4, 8, 4, 8, 8,
  
  4, 8, 4, 8, 8,
  4, 8, 4, 8, 8,
  4, 8, 8, 4, 4,
  4, 4, 4, 4,
  
  4, 8, 8, 4, 8, 8,
  4, 8, 8, 4, 8, 8,
  4, 8, 4, 4,
  4, 4, 8, 4, 8, 8,
  
  4, 8, 4, 8, 8,
  4, 8, 4, 8, 8,
  4, 8, 8, 4, 4,
  4, 4, 4, 4,
  
  2, 2,
  2, 2,
  2, 2,
  2, 4, 8, 
  2, 2,
  2, 2,
  4, 4, 2,
  2
};


int tokyo_melody[] = {
  NOTE_AS4, REST, NOTE_AS4, REST, NOTE_AS4, REST, NOTE_AS4, REST,
  NOTE_AS4, NOTE_B4, NOTE_DS5,
  NOTE_AS4, REST, NOTE_AS4, REST,
  NOTE_AS4, NOTE_B4, NOTE_DS5,
  NOTE_AS4, REST, NOTE_AS4, REST,
  NOTE_AS4, NOTE_B4, NOTE_DS5,
  NOTE_AS4, REST, NOTE_AS4, REST,
  NOTE_AS4, NOTE_B4, NOTE_DS5,
  NOTE_F5, REST, NOTE_F5, REST,
  NOTE_GS5, NOTE_FS5, NOTE_F5,
  NOTE_AS4, REST, NOTE_AS4, REST,
  NOTE_GS5, NOTE_FS5, NOTE_F5,
  NOTE_AS4, REST, NOTE_AS4, REST,
  NOTE_AS4, NOTE_B4, NOTE_DS5,
  NOTE_AS4, REST, NOTE_AS4, REST,
  NOTE_AS4, NOTE_B4, NOTE_DS5,
  NOTE_AS4, REST, NOTE_AS4, REST,
  REST
};

int tokyo_durations[] = {
  4, 4, 4, 4, 4, 4, 4, 4,
  3, 3, 4,
  4, 4, 4, 4,
  3, 3, 4,
  4, 4, 4, 4,
  3, 3, 4,
  4, 4, 4, 4,
  3, 3, 4,
  4, 4, 4, 4,
  3, 3, 4,
  4, 4, 4, 4,
  3, 3, 4,
  4, 4, 4, 4,
  3, 3, 4,
  4, 4, 4, 4,
  3, 3, 4,
  4, 4, 4, 4,
  1
};